<svg width="51" height="51" viewBox="0 0 51 51" fill="none" xmlns="http://www.w3.org/2000/svg">
<g filter="url(#filter0_d_498_47)">
<path d="M29.4347 18.9376C29.4347 19.5241 29.3076 20.0819 29.0738 20.5864L31.239 24.3271C30.2671 25.3648 29.0164 26.1359 27.6098 26.5256L25.498 22.8751L22.7094 27.6945C23.5911 27.9734 24.5261 28.1252 25.5021 28.1252C28.4013 28.1252 30.9889 26.784 32.6743 24.6798C33.1295 24.1138 33.9537 24.0236 34.5196 24.4748C35.0855 24.9259 35.1757 25.7545 34.7247 26.3205C32.5554 29.0194 29.2296 30.7502 25.498 30.7502C24.0463 30.7502 22.652 30.4877 21.3685 30.0078L19.0475 34.0192C18.8547 34.3515 18.5677 34.6222 18.2232 34.7944L15.9514 35.9306C15.7463 36.0331 15.5044 36.0208 15.3117 35.9019C15.1189 35.7829 15 35.5696 15 35.3441V33.0718C15 32.7272 15.0902 32.3868 15.2665 32.0833L17.727 27.8299C17.2021 27.3705 16.7141 26.866 16.2794 26.3205C15.8243 25.7545 15.9186 24.93 16.4845 24.4748C17.0504 24.0195 17.8746 24.1138 18.3298 24.6798C18.5636 24.971 18.8137 25.2459 19.0762 25.5043L21.9221 20.5864C21.6924 20.086 21.5612 19.5282 21.5612 18.9376C21.5612 16.7637 23.3245 15 25.498 15C27.6714 15 29.4347 16.7637 29.4347 18.9376ZM30.2958 31.1563C31.6327 30.6313 32.8588 29.893 33.9414 28.9865L35.7335 32.0833C35.9057 32.3827 36 32.7231 36 33.0718V35.3441C36 35.5696 35.8811 35.7829 35.6883 35.9019C35.4956 36.0208 35.2537 36.0331 35.0486 35.9306L32.7768 34.7944C32.4323 34.6222 32.1453 34.3515 31.9525 34.0192L30.2958 31.1563ZM25.498 20.2501C25.846 20.2501 26.1798 20.1118 26.4258 19.8657C26.6719 19.6195 26.8102 19.2857 26.8102 18.9376C26.8102 18.5895 26.6719 18.2556 26.4258 18.0095C26.1798 17.7633 25.846 17.625 25.498 17.625C25.1499 17.625 24.8161 17.7633 24.5701 18.0095C24.324 18.2556 24.1857 18.5895 24.1857 18.9376C24.1857 19.2857 24.324 19.6195 24.5701 19.8657C24.8161 20.1118 25.1499 20.2501 25.498 20.2501Z" fill="white"/>
</g>
<defs>
<filter id="filter0_d_498_47" x="0" y="0" width="51" height="51" filterUnits="userSpaceOnUse" color-interpolation-filters="sRGB">
<feFlood flood-opacity="0" result="BackgroundImageFix"/>
<feColorMatrix in="SourceAlpha" type="matrix" values="0 0 0 0 0 0 0 0 0 0 0 0 0 0 0 0 0 0 127 0" result="hardAlpha"/>
<feOffset/>
<feGaussianBlur stdDeviation="7.5"/>
<feComposite in2="hardAlpha" operator="out"/>
<feColorMatrix type="matrix" values="0 0 0 0 1 0 0 0 0 1 0 0 0 0 1 0 0 0 0.5 0"/>
<feBlend mode="normal" in2="BackgroundImageFix" result="effect1_dropShadow_498_47"/>
<feBlend mode="normal" in="SourceGraphic" in2="effect1_dropShadow_498_47" result="shape"/>
</filter>
</defs>
</svg>
