<svg width="79" height="83" viewBox="0 0 79 83" fill="none" xmlns="http://www.w3.org/2000/svg">
<g filter="url(#filter0_d_498_12)">
<path d="M35.5 16.3094C37.9752 14.8803 41.0248 14.8803 43.5 16.3094L59.3157 25.4406C61.7909 26.8697 63.3157 29.5107 63.3157 32.3688V50.6312C63.3157 53.4893 61.7909 56.1303 59.3157 57.5594L43.5 66.6906C41.0248 68.1197 37.9752 68.1197 35.5 66.6906L19.6843 57.5594C17.2091 56.1303 15.6843 53.4893 15.6843 50.6312V32.3688C15.6843 29.5107 17.2091 26.8697 19.6843 25.4406L35.5 16.3094Z" fill="url(#paint0_linear_498_12)" fill-opacity="0.7" shape-rendering="crispEdges"/>
<path d="M35.75 16.7422C38.0705 15.4025 40.9295 15.4025 43.25 16.7422L59.0654 25.874C61.3859 27.2138 62.8154 29.6896 62.8154 32.3691V50.6309C62.8154 53.3104 61.3859 55.7862 59.0654 57.126L43.25 66.2578C40.9295 67.5975 38.0705 67.5975 35.75 66.2578L19.9346 57.126C17.6141 55.7862 16.1846 53.3104 16.1846 50.6309V32.3691C16.1846 29.6896 17.6141 27.2138 19.9346 25.874L35.75 16.7422Z" stroke="#5BAFFF" shape-rendering="crispEdges"/>
</g>
<defs>
<filter id="filter0_d_498_12" x="0.684082" y="0.237305" width="77.6318" height="82.5254" filterUnits="userSpaceOnUse" color-interpolation-filters="sRGB">
<feFlood flood-opacity="0" result="BackgroundImageFix"/>
<feColorMatrix in="SourceAlpha" type="matrix" values="0 0 0 0 0 0 0 0 0 0 0 0 0 0 0 0 0 0 127 0" result="hardAlpha"/>
<feOffset/>
<feGaussianBlur stdDeviation="7.5"/>
<feComposite in2="hardAlpha" operator="out"/>
<feColorMatrix type="matrix" values="0 0 0 0 0.235294 0 0 0 0 0.556863 0 0 0 0 0.862745 0 0 0 0.65 0"/>
<feBlend mode="normal" in2="BackgroundImageFix" result="effect1_dropShadow_498_12"/>
<feBlend mode="normal" in="SourceGraphic" in2="effect1_dropShadow_498_12" result="shape"/>
</filter>
<linearGradient id="paint0_linear_498_12" x1="39.5" y1="14" x2="39.5" y2="69" gradientUnits="userSpaceOnUse">
<stop offset="1" stop-color="#3C8EDC"/>
</linearGradient>
</defs>
</svg>
