<svg width="14" height="14" viewBox="0 0 14 14" fill="none" xmlns="http://www.w3.org/2000/svg">
<g id="material-symbols:add-a-photo-outline">
<path id="Vector" d="M11.0834 4.66669V3.50002H9.91671V2.33335H11.0834V1.16669H12.25V2.33335H13.4167V3.50002H12.25V4.66669H11.0834ZM1.75004 12.8334C1.42921 12.8334 1.15446 12.719 0.925792 12.4904C0.697125 12.2617 0.582986 11.9871 0.583375 11.6667V4.66669C0.583375 4.34585 0.697708 4.0711 0.926375 3.84244C1.15504 3.61377 1.4296 3.49963 1.75004 3.50002H3.58754L4.66671 2.33335H8.16671V3.50002H5.17712L4.11254 4.66669H1.75004V11.6667H11.0834V6.41669H12.25V11.6667C12.25 11.9875 12.1357 12.2623 11.907 12.4909C11.6784 12.7196 11.4038 12.8337 11.0834 12.8334H1.75004ZM6.41671 10.7917C7.14587 10.7917 7.76576 10.5364 8.27637 10.0258C8.78699 9.51516 9.0421 8.89546 9.04171 8.16669C9.04171 7.43752 8.7864 6.81763 8.27579 6.30702C7.76518 5.79641 7.14549 5.5413 6.41671 5.54169C5.68754 5.54169 5.06765 5.79699 4.55704 6.3076C4.04643 6.81821 3.79132 7.43791 3.79171 8.16669C3.79171 8.89585 4.04701 9.51574 4.55763 10.0264C5.06824 10.537 5.68793 10.7921 6.41671 10.7917ZM6.41671 9.62502C6.00838 9.62502 5.66324 9.48405 5.38129 9.2021C5.09935 8.92016 4.95837 8.57502 4.95837 8.16669C4.95837 7.75835 5.09935 7.41321 5.38129 7.13127C5.66324 6.84933 6.00838 6.70835 6.41671 6.70835C6.82504 6.70835 7.17018 6.84933 7.45212 7.13127C7.73407 7.41321 7.87504 7.75835 7.87504 8.16669C7.87504 8.57502 7.73407 8.92016 7.45212 9.2021C7.17018 9.48405 6.82504 9.62502 6.41671 9.62502Z" fill="white"/>
</g>
</svg>
