<svg width="16" height="16" viewBox="0 0 16 16" fill="none" xmlns="http://www.w3.org/2000/svg">
<g id="solar:user-id-linear">
<g id="Group">
<path id="Vector" d="M5.85729 7.28575C6.64628 7.28575 7.28588 6.64616 7.28588 5.85717C7.28588 5.06819 6.64628 4.42859 5.85729 4.42859C5.06831 4.42859 4.42871 5.06819 4.42871 5.85717C4.42871 6.64616 5.06831 7.28575 5.85729 7.28575Z" stroke="white" stroke-opacity="0.25"/>
<path id="Vector_2" d="M8.71433 10.1429C8.71433 10.9322 8.71433 11.5715 5.85717 11.5715C3 11.5715 3 10.9322 3 10.1429C3 9.35365 4.27858 8.71436 5.85717 8.71436C7.43575 8.71436 8.71433 9.35365 8.71433 10.1429Z" stroke="white" stroke-opacity="0.25"/>
<path id="Vector_3" d="M0.857178 8.00004C0.857178 5.30644 0.857178 3.95929 1.69433 3.12286C2.53076 2.28571 3.87792 2.28571 6.57151 2.28571H9.42868C12.1223 2.28571 13.4694 2.28571 14.3059 3.12286C15.143 3.95929 15.143 5.30644 15.143 8.00004C15.143 10.6936 15.143 12.0408 14.3059 12.8772C13.4694 13.7144 12.1223 13.7144 9.42868 13.7144H6.57151C3.87792 13.7144 2.53076 13.7144 1.69433 12.8772C0.857178 12.0408 0.857178 10.6936 0.857178 8.00004Z" stroke="white" stroke-opacity="0.25"/>
<path id="Vector_4" d="M13.0002 7.99999H10.143M13.0002 5.85712H9.42871M13.0002 10.1429H10.8573" stroke="white" stroke-opacity="0.25" stroke-linecap="round"/>
</g>
</g>
</svg>
