<svg width="15" height="13" viewBox="0 0 15 13" fill="none" xmlns="http://www.w3.org/2000/svg">
<path fill-rule="evenodd" clip-rule="evenodd" d="M11.25 0.5H3.75L3 5L0 6.5C0 6.5 1.5 7.25 7.5 7.25C13.5 7.25 15 6.5 15 6.5L12 5L11.25 0.5ZM4.5 12.5C5.74264 12.5 6.75 11.4926 6.75 10.25H8.25C8.25 11.4926 9.25736 12.5 10.5 12.5C11.7426 12.5 12.75 11.4926 12.75 10.25C12.75 9.00736 11.7426 8 10.5 8C9.52034 8 8.68691 8.62611 8.37803 9.5H6.62197C6.31309 8.62611 5.47966 8 4.5 8C3.25736 8 2.25 9.00736 2.25 10.25C2.25 11.4926 3.25736 12.5 4.5 12.5Z" fill="white" fill-opacity="0.45"/>
</svg>
