<svg width="13" height="13" viewBox="0 0 13 13" fill="none" xmlns="http://www.w3.org/2000/svg">
<path fill-rule="evenodd" clip-rule="evenodd" d="M0.25 2.125C0.25 1.62772 0.447544 1.15081 0.799175 0.799175C1.15081 0.447544 1.62772 0.25 2.125 0.25H5.9825C6.47952 0.250272 6.9561 0.447873 7.3075 0.799375L12.3075 5.79937C12.659 6.15099 12.8565 6.62782 12.8565 7.125C12.8565 7.62218 12.659 8.09901 12.3075 8.45063L8.45125 12.3081C8.27714 12.4823 8.07042 12.6204 7.84292 12.7147C7.61541 12.8089 7.37157 12.8574 7.12531 12.8574C6.87906 12.8574 6.63521 12.8089 6.40771 12.7147C6.1802 12.6204 5.97349 12.4823 5.79937 12.3081L0.799375 7.30813C0.44772 6.95658 0.250106 6.47974 0.25 5.9825V2.125ZM3.375 2.75C3.20924 2.75 3.05027 2.81585 2.93306 2.93306C2.81585 3.05027 2.75 3.20924 2.75 3.375C2.75 3.54076 2.81585 3.69973 2.93306 3.81694C3.05027 3.93415 3.20924 4 3.375 4C3.54076 4 3.70036 3.93415 3.81757 3.81694C3.93478 3.69973 4.00063 3.54076 4.00063 3.375C4.00063 3.20924 3.93478 3.05027 3.81757 2.93306C3.70036 2.81585 3.54076 2.75 3.375 2.75Z" fill="white" fill-opacity="0.45"/>
</svg>
