<svg width="12" height="14" viewBox="0 0 12 14" fill="none" xmlns="http://www.w3.org/2000/svg">
<path d="M6.50004 13.5H5.50004C5.23483 13.5 4.98047 13.3946 4.79294 13.2071C4.6054 13.0196 4.50004 12.7652 4.50004 12.5L4.50161 9.81812C4.50164 9.79617 4.49589 9.77459 4.48493 9.75556C4.47397 9.73653 4.45819 9.72073 4.43919 9.70973C4.42018 9.69874 4.39861 9.69295 4.37665 9.69294C4.35469 9.69293 4.33312 9.69871 4.31411 9.70969L1.99098 11.0553C1.76505 11.1857 1.49655 11.2211 1.24455 11.1536C0.992558 11.0861 0.777697 10.9212 0.647231 10.6953L0.131606 9.80031L0.129731 9.79719C0.00277993 9.57136 -0.0304961 9.30473 0.0370561 9.05462C0.104608 8.80451 0.267595 8.5909 0.490981 8.45969L2.82254 7.10812C2.84149 7.09714 2.85721 7.08137 2.86814 7.06239C2.87907 7.04341 2.88482 7.0219 2.88482 7C2.88482 6.9781 2.87907 6.95659 2.86814 6.93761C2.85721 6.91863 2.84149 6.90286 2.82254 6.89187L0.493169 5.54156C0.381013 5.47725 0.282667 5.39141 0.20378 5.28898C0.124892 5.18655 0.0670176 5.06955 0.0334794 4.94469C-5.88633e-05 4.81983 -0.00859981 4.68957 0.00834696 4.5614C0.0252937 4.43323 0.0673945 4.30967 0.132231 4.19781L0.645981 3.30562C0.710898 3.19283 0.79755 3.09404 0.900918 3.01497C1.00429 2.9359 1.12232 2.87813 1.24817 2.845C1.37259 2.81161 1.5024 2.80326 1.63007 2.82042C1.75774 2.83759 1.88074 2.87993 1.99192 2.945L4.31411 4.28875C4.33312 4.29973 4.35469 4.3055 4.37665 4.3055C4.39861 4.30549 4.42018 4.2997 4.43919 4.2887C4.45819 4.27771 4.47397 4.26191 4.48493 4.24288C4.49589 4.22385 4.50164 4.20227 4.50161 4.18031L4.50004 1.5C4.50004 1.23478 4.6054 0.98043 4.79294 0.792893C4.98047 0.605357 5.23483 0.5 5.50004 0.5H6.50004C6.76526 0.5 7.01961 0.605357 7.20715 0.792893C7.39469 0.98043 7.50004 1.23478 7.50004 1.5V4.17875C7.50001 4.20071 7.50576 4.22229 7.51672 4.24131C7.52768 4.26034 7.54346 4.27615 7.56246 4.28714C7.58147 4.29813 7.60304 4.30393 7.625 4.30393C7.64696 4.30394 7.66853 4.29817 7.68754 4.28719L10.0107 2.94156C10.2367 2.81138 10.5051 2.77617 10.757 2.84366C11.0089 2.91116 11.2238 3.07583 11.3544 3.30156L11.8697 4.19656L11.8716 4.19938C12 4.42544 12.0338 4.69311 11.9657 4.94401C11.8975 5.19491 11.733 5.40869 11.5079 5.53875L9.17879 6.88875C9.15985 6.89974 9.14413 6.91551 9.1332 6.93449C9.12227 6.95346 9.11652 6.97498 9.11652 6.99687C9.11652 7.01877 9.12227 7.04029 9.1332 7.05926C9.14413 7.07824 9.15985 7.09401 9.17879 7.105L11.5079 8.455C11.62 8.51932 11.7184 8.60515 11.7972 8.70757C11.8761 8.80999 11.934 8.92699 11.9676 9.05184C12.0012 9.17669 12.0097 9.30694 11.9928 9.43512C11.9759 9.56329 11.9339 9.68687 11.8691 9.79875L11.3554 10.6909C11.2904 10.8037 11.2038 10.9025 11.1004 10.9816C10.9971 11.0607 10.879 11.1184 10.7532 11.1516C10.6287 11.185 10.4989 11.1933 10.3713 11.1761C10.2436 11.159 10.1206 11.1166 10.0094 11.0516L7.68723 9.70781C7.66824 9.69685 7.64669 9.69107 7.62476 9.69107C7.60283 9.69106 7.58128 9.69682 7.56229 9.70778C7.54329 9.71874 7.52751 9.7345 7.51653 9.75348C7.50555 9.77247 7.49975 9.79401 7.49973 9.81594L7.50004 12.5C7.50004 12.7652 7.39469 13.0196 7.20715 13.2071C7.01961 13.3946 6.76526 13.5 6.50004 13.5Z" fill="white" fill-opacity="0.45"/>
</svg>
