<svg width="617" height="140" viewBox="0 0 617 140" fill="none" xmlns="http://www.w3.org/2000/svg">
<g opacity="0.35" filter="url(#filter0_f_57_3)">
<path d="M299.007 25.1118C288.17 27.1671 278.677 35.4353 275.297 45.8523C274.556 48.1413 274.278 50.3835 274.139 54.9614C273.954 60.9407 273.954 61.0341 275.111 62.3888C276.593 64.0704 276.593 64.304 275.158 66.2192C274.139 67.5739 274 68.2279 274 71.5445C274 75.5618 274.324 76.5895 276.269 78.6916C278.353 80.9806 278.909 81.1207 287.43 81.3541L295.534 81.5881L295.672 87.0066C295.765 92.005 295.858 92.5186 296.876 93.4529C297.479 94.0604 298.821 94.6206 299.84 94.7607L301.739 94.9947L301.878 92.752L302.017 90.4632L304.24 90.3231L306.416 90.1831V94.9008H310.584V90.1831L312.807 90.3231L314.983 90.4632L315.122 92.752L315.261 94.9947L317.16 94.7607C318.179 94.6206 319.521 94.0604 320.124 93.4529C321.142 92.5186 321.235 92.005 321.328 87.0066L321.466 81.5881L329.57 81.3541C338.091 81.1207 338.647 80.9806 340.731 78.6916C342.676 76.5895 343 75.5618 343 71.3577C343 67.8075 342.861 67.2469 341.843 66.0324C340.36 64.2573 340.407 63.5566 341.889 62.1552C343.093 61.0341 343.093 60.9873 342.907 54.9614C342.722 50.4302 342.445 48.1413 341.703 45.8523C338.786 36.8834 331.654 29.6896 322.532 26.373C319.383 25.2519 318.549 25.1585 309.658 25.0183C304.425 24.9716 299.655 25.0183 299.007 25.1118ZM294.515 59.1656C299.609 61.3611 301.461 62.996 301.044 64.8645C300.489 67.4338 298.544 70.9372 297.34 71.5912C296.043 72.2452 291.458 72.3387 286.828 71.7314C282.752 71.2175 280.576 68.0877 281.085 63.5099C281.409 60.8939 282.752 58.4181 284.281 57.624C286.179 56.643 290.162 57.2503 294.515 59.1656ZM333.507 58.605C336.285 61.4078 336.702 66.8732 334.341 69.676C332.997 71.2642 330.265 71.9649 324.43 72.105C319.707 72.2452 318.595 71.6846 317.206 68.6483C315.678 65.3784 315.446 63.6967 316.465 62.5756C318.364 60.4735 326.421 57.1102 329.756 57.0635C331.654 57.0635 332.21 57.297 333.507 58.605ZM311.047 74.6743C312.807 77.4304 314.011 80.6535 313.64 81.5881C313.501 81.9616 312.853 82.5685 312.158 82.8492C311.001 83.3628 310.815 83.3161 309.658 81.9149L308.407 80.3733L307.25 81.8682C306.324 83.1293 305.907 83.3161 304.888 83.0359C302.434 82.4284 302.943 78.6449 305.999 74.394C307.898 71.7314 309.241 71.7781 311.047 74.6743Z" fill="#EAF5FF" fill-opacity="0.65"/>
<path d="M282.34 92.2041C282.34 99.2579 282.757 101.313 284.609 103.462C285.35 104.256 289.055 107.199 292.852 110.002L299.798 115L302.531 113.739C306.374 111.917 310.635 111.917 314.478 113.739L317.211 115L324.111 110.002C334.484 102.481 334.669 102.248 334.669 92.2041V86.038H328.278L328.093 90.8963C327.954 95.4273 327.815 95.9408 326.565 97.7628C324.759 100.379 322.397 101.547 318.415 101.827L315.219 102.06V105.657H310.588V101.92H306.421V105.657H301.79V102.06L298.594 101.827C294.612 101.547 292.25 100.379 290.444 97.7628C289.194 95.9408 289.055 95.4273 288.916 90.8963L288.731 86.038H282.34V92.2041Z" fill="#EAF5FF" fill-opacity="0.65"/>
</g>
<path d="M299.007 25.1118C288.17 27.1671 278.677 35.4353 275.297 45.8523C274.556 48.1413 274.278 50.3835 274.139 54.9614C273.954 60.9407 273.954 61.0341 275.111 62.3888C276.593 64.0704 276.593 64.304 275.158 66.2192C274.139 67.5739 274 68.2279 274 71.5445C274 75.5618 274.324 76.5895 276.269 78.6916C278.353 80.9806 278.909 81.1207 287.43 81.3541L295.534 81.5881L295.672 87.0066C295.765 92.005 295.858 92.5186 296.876 93.4529C297.479 94.0604 298.821 94.6206 299.84 94.7607L301.739 94.9947L301.878 92.752L302.017 90.4632L304.24 90.3231L306.416 90.1831V94.9008H310.584V90.1831L312.807 90.3231L314.983 90.4632L315.122 92.752L315.261 94.9947L317.16 94.7607C318.179 94.6206 319.521 94.0604 320.124 93.4529C321.142 92.5186 321.235 92.005 321.328 87.0066L321.466 81.5881L329.57 81.3541C338.091 81.1207 338.647 80.9806 340.731 78.6916C342.676 76.5895 343 75.5618 343 71.3577C343 67.8075 342.861 67.2469 341.843 66.0324C340.36 64.2573 340.407 63.5566 341.889 62.1552C343.093 61.0341 343.093 60.9873 342.907 54.9614C342.722 50.4302 342.445 48.1413 341.703 45.8523C338.786 36.8834 331.654 29.6896 322.532 26.373C319.383 25.2519 318.549 25.1585 309.658 25.0183C304.425 24.9716 299.655 25.0183 299.007 25.1118ZM294.515 59.1656C299.609 61.3611 301.461 62.996 301.044 64.8645C300.489 67.4338 298.544 70.9372 297.34 71.5912C296.043 72.2452 291.458 72.3387 286.828 71.7314C282.752 71.2175 280.576 68.0877 281.085 63.5099C281.409 60.8939 282.752 58.4181 284.281 57.624C286.179 56.643 290.162 57.2503 294.515 59.1656ZM333.507 58.605C336.285 61.4078 336.702 66.8732 334.341 69.676C332.997 71.2642 330.265 71.9649 324.43 72.105C319.707 72.2452 318.595 71.6846 317.206 68.6483C315.678 65.3784 315.446 63.6967 316.465 62.5756C318.364 60.4735 326.421 57.1102 329.756 57.0635C331.654 57.0635 332.21 57.297 333.507 58.605ZM311.047 74.6743C312.807 77.4304 314.011 80.6535 313.64 81.5881C313.501 81.9616 312.853 82.5685 312.158 82.8492C311.001 83.3628 310.815 83.3161 309.658 81.9149L308.407 80.3733L307.25 81.8682C306.324 83.1293 305.907 83.3161 304.888 83.0359C302.434 82.4284 302.943 78.6449 305.999 74.394C307.898 71.7314 309.241 71.7781 311.047 74.6743Z" fill="#EAF5FF" fill-opacity="0.65"/>
<path d="M282.34 92.2041C282.34 99.2579 282.757 101.313 284.609 103.462C285.35 104.256 289.055 107.199 292.852 110.002L299.798 115L302.531 113.739C306.374 111.917 310.635 111.917 314.478 113.739L317.211 115L324.111 110.002C334.484 102.481 334.669 102.248 334.669 92.2041V86.038H328.278L328.093 90.8963C327.954 95.4273 327.815 95.9408 326.565 97.7628C324.759 100.379 322.397 101.547 318.415 101.827L315.219 102.06V105.657H310.588V101.92H306.421V105.657H301.79V102.06L298.594 101.827C294.612 101.547 292.25 100.379 290.444 97.7628C289.194 95.9408 289.055 95.4273 288.916 90.8963L288.731 86.038H282.34V92.2041Z" fill="#EAF5FF" fill-opacity="0.65"/>
<path d="M2 70H29.8688C30.793 70 31.6657 69.574 32.2342 68.8453L64.477 27.5158C65.9658 25.6075 68.9852 26.157 69.7062 28.4675L95.3859 110.759C96.1501 113.208 99.4364 113.63 100.795 111.454L138.847 50.4838C140.007 48.6249 142.704 48.5965 143.903 50.4306L169.898 90.1932C170.984 91.8547 173.356 92.0221 174.665 90.5295L191.77 71.0221C192.34 70.3725 193.162 70 194.026 70H222" stroke="url(#paint0_linear_57_3)" stroke-width="3" stroke-linecap="round" stroke-linejoin="round"/>
<path d="M394 70H421.869C422.793 70 423.666 69.574 424.234 68.8453L456.477 27.5158C457.966 25.6075 460.985 26.157 461.706 28.4675L487.386 110.759C488.15 113.208 491.436 113.63 492.795 111.454L530.847 50.4838C532.007 48.6249 534.704 48.5965 535.903 50.4306L561.898 90.1932C562.984 91.8547 565.356 92.0221 566.665 90.5295L583.77 71.0221C584.34 70.3725 585.162 70 586.026 70H614" stroke="url(#paint1_linear_57_3)" stroke-width="3" stroke-linecap="round" stroke-linejoin="round"/>
<defs>
<filter id="filter0_f_57_3" x="249" y="0" width="119" height="140" filterUnits="userSpaceOnUse" color-interpolation-filters="sRGB">
<feFlood flood-opacity="0" result="BackgroundImageFix"/>
<feBlend mode="normal" in="SourceGraphic" in2="BackgroundImageFix" result="shape"/>
<feGaussianBlur stdDeviation="12.5" result="effect1_foregroundBlur_57_3"/>
</filter>
<linearGradient id="paint0_linear_57_3" x1="19.3953" y1="70" x2="207.93" y2="70" gradientUnits="userSpaceOnUse">
<stop stop-color="#CAE5FF" stop-opacity="0"/>
<stop offset="0.505" stop-color="#8FC8FF" stop-opacity="0.74"/>
<stop offset="1" stop-color="#CAE5FF" stop-opacity="0"/>
</linearGradient>
<linearGradient id="paint1_linear_57_3" x1="411.395" y1="70" x2="599.93" y2="70" gradientUnits="userSpaceOnUse">
<stop stop-color="#EAF5FF" stop-opacity="0"/>
<stop offset="0.505" stop-color="#EAF5FF" stop-opacity="0.74"/>
<stop offset="1" stop-color="#EAF5FF" stop-opacity="0"/>
</linearGradient>
</defs>
</svg>
